inDegrees=no
num_controls=7
num_derivatives=13
num_iterations=100
num_multipliers=7
num_parameters=0
num_slacks=7
num_states=26
objective=4.698584
objective_accelerations=0.612478
objective_balance=0.100236
objective_effort=0.471467
objective_height=3.451638
objective_ligament=0.062764
solver_duration=1149.372581
status=Solve_Succeeded
success=true
DataType=double
version=3
OpenSimVersion=4.4-2022-07-23-0e9fedc
endheader
time	/jointset/ground_pelvis/pelvis_tilt/value	/jointset/ground_pelvis/pelvis_tx/value	/jointset/ground_pelvis/pelvis_ty/value	/jointset/hip_l/hip_flexion_l/value	/jointset/hip_l/hip_adduction_l/value	/jointset/hip_l/hip_rotation_l/value	/jointset/back/lumbar_extension/value	/jointset/patellofemoral_l/patellar_flexion_l/value	/jointset/knee_l/knee_flexion_l/value	/jointset/knee_l/knee_adduction_l/value	/jointset/knee_l/knee_rotation_l/value	/jointset/ankle_l/ankle_angle_l/value	/jointset/subtalar_l/subtalar_angle_l/value	/jointset/ground_pelvis/pelvis_tilt/speed	/jointset/ground_pelvis/pelvis_tx/speed	/jointset/ground_pelvis/pelvis_ty/speed	/jointset/hip_l/hip_flexion_l/speed	/jointset/hip_l/hip_adduction_l/speed	/jointset/hip_l/hip_rotation_l/speed	/jointset/back/lumbar_extension/speed	/jointset/patellofemoral_l/patellar_flexion_l/speed	/jointset/knee_l/knee_flexion_l/speed	/jointset/knee_l/knee_adduction_l/speed	/jointset/knee_l/knee_rotation_l/speed	/jointset/ankle_l/ankle_angle_l/speed	/jointset/subtalar_l/subtalar_angle_l/speed	/forceset/tau_hip_flexion_l	/forceset/tau_hip_adduction_l	/forceset/tau_hip_rotation_l	/forceset/tau_knee_flexion_l	/forceset/tau_ankle_angle_l	/forceset/tau_subtalar_angle_l	/forceset/tau_lumbar_extension	lambda_cid13_p0	lambda_cid13_p1	lambda_cid13_p2	lambda_cid13_p3	lambda_cid13_p4	lambda_cid13_p5	lambda_cid14_p0	/jointset/ground_pelvis/pelvis_tilt/accel	/jointset/ground_pelvis/pelvis_tx/accel	/jointset/ground_pelvis/pelvis_ty/accel	/jointset/hip_l/hip_flexion_l/accel	/jointset/hip_l/hip_adduction_l/accel	/jointset/hip_l/hip_rotation_l/accel	/jointset/back/lumbar_extension/accel	/jointset/patellofemoral_l/patellar_flexion_l/accel	/jointset/knee_l/knee_flexion_l/accel	/jointset/knee_l/knee_adduction_l/accel	/jointset/knee_l/knee_rotation_l/accel	/jointset/ankle_l/ankle_angle_l/accel	/jointset/subtalar_l/subtalar_angle_l/accel	gamma_cid13_p0	gamma_cid13_p1	gamma_cid13_p2	gamma_cid13_p3	gamma_cid13_p4	gamma_cid13_p5	gamma_cid14_p0
0.5	-0.3289693652552242	-0.03270419455490792	0.6995434846656302	1.377554887952007	-0.2495225901926477	-0.02464411646354468	-0.3606955811708635	1.123966707347522	1.123966707347504	0.02012497452691749	0.174529895100122	0.2875931301005508	0.07825835925859044	-0.3209483884504871	-0.1009786630425052	-0.7926225220304298	2.563683234338353	0.05969303122992793	0.4009464862299996	-0.5792298019520816	2.849021066931519	2.849021066931525	0.4774109873002015	1.293189314900199e-05	0.7556928068696204	0.2895849546119633	-0.2103572907533588	0.006834247870569517	-0.01009489404204388	-0.3103338517459659	0.08003038393688743	0.02661795987848838	0.2104474876597404	-11.81962981711297	-7.993097775782201	-0.838663625966599	-4.121065939388996	-608.1343308528797	-60.7659474768842	-2.798959007492483	1.252745466191333	0.9323555479715823	-0.5261848276712957	-2.254284837110037	-0.1823492988404618	-1.087520569445736	2.390686461038519	-2.42630610731364	-2.426306107313787	-0.3729504917682321	-0.09846854892484233	-1.670769268989199	-0.3144271541395368	1.663039715131108e-07	-5.684227587481763e-06	-3.483009726299761e-06	-9.009753408909791e-07	-3.071637169428506e-07	-4.391479086325161e-06	-9.15455578729507e-08
0.51	-0.3321155183248418	-0.03366743488861507	0.6915930321431137	1.403075508530103	-0.2489360412689614	-0.02069452651503475	-0.3663682507237964	1.152331028445181	1.152331028445168	0.0248831141195295	0.1745298381581707	0.2950645801349608	0.0811360057419251	-0.308220980880462	-0.09167276367688244	-0.7972654554478721	2.540122064215133	0.05758928199303562	0.3889967196886492	-0.5552700981746465	2.823465479170895	2.823465479170916	0.474184075460293	-1.839222684970276e-05	0.738471172063355	0.2858417574886589	-0.2170206523997475	0.007442806173014012	-0.01069134648203048	-0.3166966179017185	0.07811492347201411	0.02675079998595538	0.216309981096856	-12.90216388031973	-7.633689932687465	-1.155884473922552	-3.53134203075725	-615.8526424973293	-60.89638525293272	-1.83018419992822	1.291933799506867	0.9290235442513972	-0.4030262438405853	-2.454843776927392	-0.2277342449483981	-1.245100511766084	2.403713904965362	-2.676825175367403	-2.676825175364918	-0.3032128738363175	0.04627768970236232	-1.766976462043083	-0.4183519090302607	2.054834568970754e-07	-5.31437781200539e-06	-3.599976600210952e-06	-8.810630174875961e-07	-2.793283787568125e-07	-4.412333059576549e-06	-3.577733276965118e-08
0.52	-0.3351325582393325	-0.03453775294598736	0.683602214557411	1.428350955271569	-0.2483711991394104	-0.01686371339498492	-0.3718003029251806	1.18042846565224	1.180428465652242	0.02960785432496401	0.1745298163816804	0.3023599906461893	0.08397340307050609	-0.2951257574265045	-0.08239420777553247	-0.8006955346677016	2.514648467011924	0.05535167240273575	0.3771911205358486	-0.5311063316424414	2.79564428881305	2.795644288813088	0.4707311098710298	1.996498274095545e-05	0.720484902233176	0.2815351236611843	-0.2236840140461479	0.008051364475511176	-0.01128779892223034	-0.323059384057473	0.07619946300715831	0.02688364009349839	0.2221724745339567	-13.971898597821	-7.289739855664378	-1.455549824360785	-3.043810260598754	-623.3987911600084	-61.04683887062474	-1.082394337616871	1.326308642977636	0.9268868551171022	-0.2836139881487407	-2.636770253108093	-0.2091213695220224	-1.058687091735731	2.431499011992456	-2.879426626757581	-2.879426626757573	-0.4181612416392098	-0.08453228300700459	-1.823696273771854	-0.4271144949735443	2.2665634441529e-07	-4.924194357741538e-06	-3.533315743490203e-06	-8.469431921128564e-07	-2.608094562524638e-07	-4.370951605649323e-06	2.549193894828671e-09
0.53	-0.3380170197769324	-0.03531552713634489	0.6755831549676984	1.453362472426682	-0.2478292010318921	-0.01314959211225722	-0.3769898335133575	1.208236725257562	1.208236725257579	0.03429683221275231	0.1745298323416766	0.3094719787083683	0.08676514249096508	-0.2817189616659719	-0.07317406414689509	-0.8029119714163311	2.487352569279427	0.05302704317225395	0.3656687392285227	-0.5067886296198488	2.765652940154234	2.765652940154221	0.4670192667005612	-1.116406000186334e-05	0.7018061515686252	0.2767160638607892	-0.2300140376308622	0.008462543472300769	-0.01204048248628458	-0.3298240397753098	0.07426235241025569	0.02698375738975643	0.2277108332929348	-15.06383543795008	-6.932560495746166	-1.751756562211561	-2.394946897194611	-631.0070568847195	-61.20808142222624	-0.5453153945614653	1.355019154817656	0.9173972349373971	-0.1600469558671831	-2.821339775491979	-0.2465857961336577	-1.193780058478723	2.433579253264026	-3.112197336132725	-3.112197336140546	-0.3550430818433525	0.0392772409204928	-1.906124239591116	-0.5226458622778466	2.433467224057557e-07	-4.467849974148659e-06	-3.403211254503494e-06	-8.028860765691023e-07	-2.366771434039314e-07	-4.239657445598529e-06	3.695509116689867e-08
0.54	-0.3407659825344738	-0.03600153606677612	0.6675480533229701	1.478091962556038	-0.2473109396359413	-0.009549647924251559	-0.3819358523901338	1.235734429706159	1.235734429706188	0.03894722222339405	0.1745298731024099	0.3163939473085433	0.08950602248547938	-0.2680260014163928	-0.0640411557902706	-0.8039039456708373	2.458243061860062	0.05060433008886728	0.354355701591291	-0.4824039893624047	2.73353325746785	2.733533257467784	0.4630135344463951	2.49251303920177e-05	0.6824810098322984	0.2713632384721834	-0.2363440612156026	0.008873722469110938	-0.01279316605048622	-0.3365886954931486	0.07232524181336415	0.02708387468604745	0.2332491920518864	-16.14590847747246	-6.587838414398989	-2.033726053085843	-1.837851300589087	-638.4873194144751	-61.38249717622565	-0.2065693841963115	1.383541540786777	0.9094398007145877	-0.03872148932407823	-2.999492190481753	-0.2287381401030268	-1.016818357716839	2.444886658962726	-3.305093432271369	-3.3050934322714	-0.4769390583787811	-0.0710886363796995	-1.952974488127009	-0.5338676126156411	2.550777281527543e-07	-3.938306264489619e-06	-3.202913810669342e-06	-7.478345123277154e-07	-2.06334271025664e-07	-4.008885397921655e-06	6.702327081332367e-08
0.55	-0.3433768049485575	-0.03659674786516815	0.6595091070225215	1.502521679581474	-0.2468170922236973	-0.006061183405544826	-0.3866378340448086	1.262900720328296	1.262900720328309	0.04355611488815336	0.1745297971675577	0.3231197565500752	0.09219112072865319	-0.2541076969078768	-0.05502472800946626	-0.8036821148938168	2.427417021590784	0.04815223358906141	0.3433440283375704	-0.4580049958393577	2.699391264387303	2.699391264387287	0.4587441119886603	-2.214023507452209e-05	0.6625941112908686	0.2655701013841295	-0.242223119497337	0.009230511897153971	-0.01369235684797857	-0.3436601520865842	0.07044885270238288	0.02706660834374893	0.2383620540263019	-17.21670191533661	-6.186759545328782	-2.33307332436671	-1.149552005986159	-645.8434916437119	-61.45501195380752	-0.05411218749659377	1.400612221032042	0.8940720874202155	0.08307733329395688	-3.166635391627001	-0.254824302536216	-1.142352721988975	2.435507558887513	-3.518809316666683	-3.518809316659413	-0.4054657499553024	0.03193346866272071	-2.019685617761083	-0.614040665013969	2.536098089221707e-07	-3.268271324465862e-06	-2.827707368574123e-06	-6.713351597260817e-07	-1.662142547646399e-07	-3.561938236990362e-06	8.462037204586734e-08
0.5600000000000001	-0.3458475168545176	-0.03710252982162091	0.651478467424259	1.526634641114923	-0.2463480415559714	-0.002682637801943325	-0.3910962053922706	1.289715579605484	1.289715579605484	0.0481216089462396	0.1745299403700989	0.3296440691900711	0.09481588681932412	-0.2400038997934545	-0.04615518740241537	-0.8022426052336354	2.394891963462451	0.04564498118457926	0.3323719185722759	-0.4336819279198403	2.66324698847794	2.663246988477973	0.4543338131115531	6.875261117325854e-05	0.6421816895250351	0.259296807971529	-0.2481021777791091	0.009587301325188227	-0.0145915476454672	-0.350731608680017	0.06857246359140655	0.02704934200143975	0.243474916000681	-18.28383059003384	-5.792037613219543	-2.624883353973672	-0.5268851543488429	-653.1527691589805	-61.53453314754152	-0.04225615257838836	1.420640061967896	0.8800623659639425	0.2048142873080655	-3.339295762292821	-0.2397693210382835	-1.008905660031572	2.42970153825678	-3.705549998034627	-3.705549998034655	-0.505114342253303	-0.04349699403687404	-2.058079133007698	-0.6298988775249088	2.363031797184889e-07	-2.429646908004449e-06	-2.242610128565631e-06	-5.69098461092153e-07	-1.14361665844308e-07	-2.855580940153773e-06	8.725217918175389e-08
0.5700000000000001	-0.3481764059294532	-0.03752040764303105	0.6434682120609945	1.550414201879361	-0.2459039433508825	0.0005883656154646131	-0.3953118270953239	1.316159630231226	1.316159630231225	0.05264118386471089	0.1745301463513291	0.3359620977043556	0.09737614565612249	-0.2257590688632014	-0.03745255496210963	-0.7996087869479014	2.360752366784216	0.04316966193979793	0.3218498529896406	-0.4094745085764593	2.625252678942227	2.625252678942273	0.449543956258496	-1.527251623548628e-05	0.6213598871480102	0.2526823380014764	-0.2535082814879817	0.009850648540254378	-0.01558826632663332	-0.3577434807380414	0.06672723983695039	0.02700005080940257	0.2481458744836712	-19.3286214306843	-5.381805810004395	-2.925459237054088	0.1710495991779383	-660.1299058382523	-61.57274123987411	-0.04227798252571972	1.428644335870019	0.8604347172596266	0.3226006637674	-3.491449054990774	-0.2518437188444809	-1.070676394707264	2.411447749481927	-3.892957838784162	-3.892957838782258	-0.471675368992875	0.01145892186560362	-2.103907616815005	-0.6875807009827939	2.305941153887417e-07	-1.897415283602158e-06	-1.902850138716457e-06	-5.066275166391911e-07	-8.250274532270561e-08	-2.465329113938727e-06	9.541766231593566e-08
0.58	-0.3503623987496138	-0.03785224493319915	0.6354902818934994	1.573844335190137	-0.2454846844367673	0.003754784499571091	-0.3992863374815228	1.342214420480121	1.342214420480122	0.05711170941220804	0.1745299749200838	0.3420699728295175	0.09986818786437335	-0.2114246488403234	-0.02894708115400656	-0.7957775660797077	2.325006472729896	0.04067712298915409	0.3114550119138947	-0.385459664548955	2.585394913108733	2.585394913108792	0.4445239389190093	-6.729885304471223e-06	0.6001510117003827	0.2456534822619313	-0.2589143851968941	0.01011399575532098	-0.01658498500783443	-0.3647553527960643	0.06488201608250226	0.02695075961736886	0.2528168329666225	-20.38404286481996	-4.967172370431881	-3.229641339928811	0.8665239997657135	-667.2437312683437	-61.62588432247667	-0.04223360927101029	1.438557880492737	0.8406306395234422	0.4442948037999891	-3.660555237509832	-0.2432132622107953	-0.9834607586536468	2.391186475081398	-4.078241257590809	-4.078241257590888	-0.5511464395392645	-0.02498344236895788	-2.135493747128162	-0.7127760314233816	2.399888564762109e-07	-1.764206830253597e-06	-1.882599125818942e-06	-4.959445311195797e-07	-7.668209062270372e-08	-2.48674952853312e-06	1.107897932618504e-07
